<svg width="180" height="180" viewBox="0 0 512 512" fill="none" xmlns="http://www.w3.org/2000/svg">
  <defs>
    <linearGradient id="bg" x1="0" y1="0" x2="512" y2="512" gradientUnits="userSpaceOnUse">
      <stop stop-color="#FFB800"/>
      <stop offset="0.5" stop-color="#FF8C00"/>
      <stop offset="1" stop-color="#E06600"/>
    </linearGradient>
  </defs>
  <rect x="16" y="16" width="480" height="480" rx="80" fill="url(#bg)"/>

  <!-- Dense circuit traces -->
  <g stroke="#1A1A2E" stroke-linecap="round" fill="none" opacity="0.55">
    <!-- I area -->
    <polyline points="100,155 60,155 60,80 90,80" stroke-width="3.5"/>
    <polyline points="100,155 65,155 65,115 40,115" stroke-width="3"/>
    <line x1="90" y1="80" x2="90" y2="48" stroke-width="3"/>
    <polyline points="150,85 150,50 120,50" stroke-width="3"/>
    <polyline points="150,85 185,85 185,50" stroke-width="2.5"/>
    <polyline points="200,155 235,155 235,105 210,105" stroke-width="3.5"/>
    <line x1="210" y1="105" x2="210" y2="65" stroke-width="3"/>
    <polyline points="200,155 240,155 240,130 260,130" stroke-width="3"/>
    <line x1="100" y1="220" x2="55" y2="220" stroke-width="3"/>
    <polyline points="100,385 60,385 60,430 85,430" stroke-width="3.5"/>
    <line x1="85" y1="430" x2="85" y2="462" stroke-width="3"/>
    <polyline points="100,385 65,385 65,440 45,440" stroke-width="3"/>
    <polyline points="200,385 235,385 235,430 210,430" stroke-width="3.5"/>
    <line x1="210" y1="430" x2="210" y2="465" stroke-width="3"/>
    <polyline points="150,385 150,435 120,435" stroke-width="3"/>
    <!-- H area -->
    <polyline points="280,155 280,105 310,105 310,65" stroke-width="3.5"/>
    <polyline points="280,155 280,115 255,115 255,75" stroke-width="3"/>
    <polyline points="400,155 440,155 440,95 465,95" stroke-width="3.5"/>
    <polyline points="400,155 435,155 435,120 460,120" stroke-width="3"/>
    <line x1="465" y1="95" x2="465" y2="55" stroke-width="3"/>
    <polyline points="400,270 450,270 450,235 475,235" stroke-width="3"/>
    <polyline points="280,385 280,435 310,435" stroke-width="3.5"/>
    <line x1="310" y1="435" x2="310" y2="462" stroke-width="3"/>
    <polyline points="280,385 255,385 255,430 240,430" stroke-width="3"/>
    <polyline points="400,385 440,385 440,440 465,440" stroke-width="3.5"/>
    <line x1="465" y1="440" x2="465" y2="468" stroke-width="3"/>
    <polyline points="400,385 435,385 435,430 460,430" stroke-width="3"/>
  </g>

  <!-- Circuit nodes -->
  <g fill="#1A1A2E" opacity="0.5">
    <circle cx="90" cy="48" r="4"/><circle cx="40" cy="115" r="4"/>
    <circle cx="120" cy="50" r="3.5"/><circle cx="185" cy="50" r="3.5"/>
    <circle cx="210" cy="65" r="3.5"/><circle cx="260" cy="130" r="3.5"/>
    <circle cx="55" cy="220" r="3"/>
    <circle cx="85" cy="462" r="4"/><circle cx="45" cy="440" r="4"/>
    <circle cx="210" cy="465" r="3.5"/><circle cx="120" cy="435" r="3.5"/>
    <circle cx="310" cy="65" r="4"/><circle cx="255" cy="75" r="3.5"/>
    <circle cx="465" cy="55" r="4"/><circle cx="460" cy="120" r="3.5"/>
    <circle cx="475" cy="235" r="3.5"/>
    <circle cx="310" cy="462" r="4"/><circle cx="240" cy="430" r="3.5"/>
    <circle cx="465" cy="468" r="4"/><circle cx="460" cy="430" r="3.5"/>
  </g>

  <!-- I letter -->
  <line x1="100" y1="155" x2="200" y2="155" stroke="#1A1A2E" stroke-width="18" stroke-linecap="round"/>
  <line x1="150" y1="155" x2="150" y2="385" stroke="#1A1A2E" stroke-width="18" stroke-linecap="round"/>
  <line x1="100" y1="385" x2="200" y2="385" stroke="#1A1A2E" stroke-width="18" stroke-linecap="round"/>
  <rect x="130" y="65" width="40" height="40" rx="6" fill="#1A1A2E"/>
  <circle cx="100" cy="155" r="12" fill="#1A1A2E"/>
  <circle cx="200" cy="155" r="12" fill="#1A1A2E"/>
  <circle cx="100" cy="385" r="12" fill="#1A1A2E"/>
  <circle cx="200" cy="385" r="12" fill="#1A1A2E"/>

  <!-- H letter -->
  <line x1="280" y1="155" x2="280" y2="385" stroke="#1A1A2E" stroke-width="18" stroke-linecap="round"/>
  <line x1="400" y1="155" x2="400" y2="385" stroke="#1A1A2E" stroke-width="18" stroke-linecap="round"/>
  <line x1="280" y1="270" x2="400" y2="270" stroke="#1A1A2E" stroke-width="18" stroke-linecap="round"/>
  <circle cx="280" cy="155" r="12" fill="#1A1A2E"/>
  <circle cx="280" cy="270" r="12" fill="#1A1A2E"/>
  <circle cx="280" cy="385" r="12" fill="#1A1A2E"/>
  <circle cx="400" cy="155" r="12" fill="#1A1A2E"/>
  <circle cx="400" cy="270" r="12" fill="#1A1A2E"/>
  <circle cx="400" cy="385" r="12" fill="#1A1A2E"/>
</svg>
