<svg width="180" height="180" viewBox="0 0 512 512" fill="none" xmlns="http://www.w3.org/2000/svg">
  <defs>
    <linearGradient id="aG" x1="40" y1="80" x2="480" y2="440" gradientUnits="userSpaceOnUse">
      <stop stop-color="#FFD700"/>
      <stop offset=".45" stop-color="#FFA500"/>
      <stop offset="1" stop-color="#E67300"/>
    </linearGradient>
    <linearGradient id="aB" x1="0" y1="0" x2="512" y2="512" gradientUnits="userSpaceOnUse">
      <stop stop-color="#101820"/>
      <stop offset=".6" stop-color="#0C1219"/>
      <stop offset="1" stop-color="#080E14"/>
    </linearGradient>
  </defs>
  <rect x="16" y="16" width="480" height="480" rx="92" fill="url(#aB)"/>
  <rect x="18" y="18" width="476" height="476" rx="90" fill="none" stroke="#D4922A" stroke-opacity=".1" stroke-width="1.2"/>
  <!-- I -->
  <line x1="106" y1="142" x2="206" y2="142" stroke="url(#aG)" stroke-width="14" stroke-linecap="round"/>
  <line x1="155" y1="142" x2="155" y2="382" stroke="url(#aG)" stroke-width="14" stroke-linecap="round"/>
  <line x1="106" y1="382" x2="206" y2="382" stroke="url(#aG)" stroke-width="14" stroke-linecap="round"/>
  <circle cx="106" cy="142" r="11" fill="url(#aG)"/>
  <circle cx="155" cy="142" r="9" fill="url(#aG)"/>
  <circle cx="206" cy="142" r="10" fill="url(#aG)"/>
  <circle cx="106" cy="382" r="10" fill="url(#aG)"/>
  <circle cx="155" cy="382" r="11" fill="url(#aG)"/>
  <circle cx="206" cy="382" r="9" fill="url(#aG)"/>
  <circle cx="155" cy="90" r="17" fill="url(#aG)"/>
  <circle cx="155" cy="90" r="9" fill="url(#aB)"/>
  <!-- H -->
  <line x1="282" y1="142" x2="282" y2="382" stroke="url(#aG)" stroke-width="14" stroke-linecap="round"/>
  <line x1="408" y1="142" x2="408" y2="382" stroke="url(#aG)" stroke-width="14" stroke-linecap="round"/>
  <line x1="282" y1="262" x2="408" y2="262" stroke="url(#aG)" stroke-width="14" stroke-linecap="round"/>
  <circle cx="282" cy="142" r="10" fill="url(#aG)"/>
  <circle cx="282" cy="262" r="11" fill="url(#aG)"/>
  <circle cx="282" cy="382" r="9" fill="url(#aG)"/>
  <circle cx="408" cy="142" r="9" fill="url(#aG)"/>
  <circle cx="408" cy="262" r="10" fill="url(#aG)"/>
  <circle cx="408" cy="382" r="11" fill="url(#aG)"/>
</svg>
