<svg width="32" height="32" viewBox="0 0 512 512" fill="none" xmlns="http://www.w3.org/2000/svg">
  <defs>
    <linearGradient id="bg" x1="0" y1="0" x2="512" y2="512" gradientUnits="userSpaceOnUse">
      <stop stop-color="#FFB800"/>
      <stop offset="0.5" stop-color="#FF8C00"/>
      <stop offset="1" stop-color="#E06600"/>
    </linearGradient>
  </defs>
  <rect x="16" y="16" width="480" height="480" rx="80" fill="url(#bg)"/>
  <!-- I -->
  <line x1="100" y1="155" x2="200" y2="155" stroke="#1A1A2E" stroke-width="20" stroke-linecap="round"/>
  <line x1="150" y1="155" x2="150" y2="385" stroke="#1A1A2E" stroke-width="20" stroke-linecap="round"/>
  <line x1="100" y1="385" x2="200" y2="385" stroke="#1A1A2E" stroke-width="20" stroke-linecap="round"/>
  <circle cx="150" cy="85" r="24" fill="#1A1A2E"/>
  <!-- H -->
  <line x1="280" y1="155" x2="280" y2="385" stroke="#1A1A2E" stroke-width="20" stroke-linecap="round"/>
  <line x1="400" y1="155" x2="400" y2="385" stroke="#1A1A2E" stroke-width="20" stroke-linecap="round"/>
  <line x1="280" y1="270" x2="400" y2="270" stroke="#1A1A2E" stroke-width="20" stroke-linecap="round"/>
  <!-- Key nodes -->
  <circle cx="100" cy="155" r="14" fill="#1A1A2E"/>
  <circle cx="200" cy="155" r="14" fill="#1A1A2E"/>
  <circle cx="100" cy="385" r="14" fill="#1A1A2E"/>
  <circle cx="200" cy="385" r="14" fill="#1A1A2E"/>
  <circle cx="280" cy="155" r="14" fill="#1A1A2E"/>
  <circle cx="280" cy="270" r="14" fill="#1A1A2E"/>
  <circle cx="280" cy="385" r="14" fill="#1A1A2E"/>
  <circle cx="400" cy="155" r="14" fill="#1A1A2E"/>
  <circle cx="400" cy="270" r="14" fill="#1A1A2E"/>
  <circle cx="400" cy="385" r="14" fill="#1A1A2E"/>
</svg>
