<svg width="512" height="512" viewBox="0 0 512 512" fill="none" xmlns="http://www.w3.org/2000/svg">
  <defs>
    <linearGradient id="i5Gold" x1="0" y1="0" x2="512" y2="512" gradientUnits="userSpaceOnUse">
      <stop stop-color="#FFE066"/>
      <stop offset=".25" stop-color="#FFD700"/>
      <stop offset=".5" stop-color="#FFA500"/>
      <stop offset=".75" stop-color="#FF8C00"/>
      <stop offset="1" stop-color="#E67300"/>
    </linearGradient>
    <linearGradient id="i5GoldHi" x1="256" y1="32" x2="256" y2="480" gradientUnits="userSpaceOnUse">
      <stop stop-color="#FFF0AA" stop-opacity=".5"/>
      <stop offset=".3" stop-color="#FFD700" stop-opacity="0"/>
    </linearGradient>
    <linearGradient id="i5Letter" x1="120" y1="140" x2="400" y2="380" gradientUnits="userSpaceOnUse">
      <stop stop-color="#1A1000"/>
      <stop offset=".5" stop-color="#0D0800"/>
      <stop offset="1" stop-color="#000000"/>
    </linearGradient>
    <filter id="i5Shadow" x="-4%" y="-4%" width="108%" height="108%">
      <feDropShadow dx="0" dy="2" stdDeviation="3" flood-color="#000" flood-opacity=".25"/>
    </filter>
  </defs>
  <!-- Gold squircle bg -->
  <rect x="24" y="24" width="464" height="464" rx="100" fill="url(#i5Gold)"/>
  <!-- Top highlight -->
  <rect x="24" y="24" width="464" height="464" rx="100" fill="url(#i5GoldHi)"/>
  <!-- Border -->
  <rect x="26" y="26" width="460" height="460" rx="98" fill="none" stroke="#FFE680" stroke-opacity=".4" stroke-width="1.5"/>
  <rect x="24" y="24" width="464" height="464" rx="100" fill="none" stroke="#CC6600" stroke-opacity=".15" stroke-width="3"/>
  <!-- I with serifs -->
  <g filter="url(#i5Shadow)">
    <rect x="128" y="142" width="56" height="228" rx="5" fill="url(#i5Letter)" opacity=".92"/>
    <rect x="112" y="142" width="88" height="14" rx="4" fill="url(#i5Letter)" opacity=".92"/>
    <rect x="112" y="356" width="88" height="14" rx="4" fill="url(#i5Letter)" opacity=".92"/>
  </g>
  <!-- H -->
  <g filter="url(#i5Shadow)">
    <rect x="232" y="142" width="52" height="228" rx="5" fill="url(#i5Letter)" opacity=".92"/>
    <rect x="340" y="142" width="52" height="228" rx="5" fill="url(#i5Letter)" opacity=".92"/>
    <rect x="232" y="230" width="160" height="52" rx="5" fill="url(#i5Letter)" opacity=".92"/>
  </g>
  <!-- Underline -->
  <rect x="112" y="396" width="288" height="8" rx="4" fill="url(#i5Letter)" opacity=".35"/>
</svg>
