<svg width="512" height="512" viewBox="0 0 512 512" fill="none" xmlns="http://www.w3.org/2000/svg">
  <defs>
    <linearGradient id="i5G" x1="40" y1="80" x2="480" y2="440" gradientUnits="userSpaceOnUse">
      <stop stop-color="#FFD700"/>
      <stop offset=".45" stop-color="#FFA500"/>
      <stop offset="1" stop-color="#E67300"/>
    </linearGradient>
    <linearGradient id="i5B" x1="0" y1="0" x2="512" y2="512" gradientUnits="userSpaceOnUse">
      <stop stop-color="#101820"/>
      <stop offset=".6" stop-color="#0C1219"/>
      <stop offset="1" stop-color="#080E14"/>
    </linearGradient>
    <filter id="i5Glow">
      <feGaussianBlur in="SourceGraphic" stdDeviation="7"/>
    </filter>
  </defs>
  <rect x="16" y="16" width="480" height="480" rx="92" fill="url(#i5B)"/>
  <rect x="18" y="18" width="476" height="476" rx="90" fill="none" stroke="#D4922A" stroke-opacity=".1" stroke-width="1.2"/>
  <g stroke="#C88520" stroke-opacity=".035" stroke-width=".8">
    <line x1="92" y1="16" x2="92" y2="496"/>
    <line x1="256" y1="40" x2="256" y2="480"/>
    <line x1="420" y1="16" x2="420" y2="496"/>
    <line x1="16" y1="100" x2="496" y2="100"/>
    <line x1="40" y1="256" x2="480" y2="256"/>
    <line x1="16" y1="410" x2="496" y2="410"/>
  </g>
  <g filter="url(#i5Glow)" opacity=".25">
    <line x1="155" y1="135" x2="155" y2="384" stroke="#FFA500" stroke-width="16" stroke-linecap="round"/>
    <line x1="282" y1="135" x2="282" y2="384" stroke="#FFA500" stroke-width="16" stroke-linecap="round"/>
    <line x1="408" y1="135" x2="408" y2="384" stroke="#FFA500" stroke-width="16" stroke-linecap="round"/>
  </g>
  <!-- I -->
  <line x1="106" y1="142" x2="206" y2="142" stroke="url(#i5G)" stroke-width="13" stroke-linecap="round"/>
  <line x1="155" y1="142" x2="155" y2="382" stroke="url(#i5G)" stroke-width="13" stroke-linecap="round"/>
  <line x1="106" y1="382" x2="206" y2="382" stroke="url(#i5G)" stroke-width="13" stroke-linecap="round"/>
  <circle cx="106" cy="142" r="11" fill="url(#i5G)"/>
  <circle cx="155" cy="142" r="9" fill="url(#i5G)"/>
  <circle cx="206" cy="142" r="10" fill="url(#i5G)"/>
  <circle cx="155" cy="256" r="6" fill="url(#i5G)" opacity=".4"/>
  <circle cx="106" cy="382" r="10" fill="url(#i5G)"/>
  <circle cx="155" cy="382" r="11" fill="url(#i5G)"/>
  <circle cx="206" cy="382" r="9" fill="url(#i5G)"/>
  <circle cx="155" cy="90" r="17" fill="url(#i5G)"/>
  <circle cx="155" cy="90" r="9" fill="url(#i5B)"/>
  <!-- H -->
  <line x1="282" y1="142" x2="282" y2="382" stroke="url(#i5G)" stroke-width="13" stroke-linecap="round"/>
  <line x1="408" y1="142" x2="408" y2="382" stroke="url(#i5G)" stroke-width="13" stroke-linecap="round"/>
  <line x1="282" y1="262" x2="408" y2="262" stroke="url(#i5G)" stroke-width="13" stroke-linecap="round"/>
  <circle cx="282" cy="142" r="10" fill="url(#i5G)"/>
  <circle cx="282" cy="262" r="11" fill="url(#i5G)"/>
  <circle cx="282" cy="382" r="9" fill="url(#i5G)"/>
  <circle cx="408" cy="142" r="9" fill="url(#i5G)"/>
  <circle cx="408" cy="262" r="10" fill="url(#i5G)"/>
  <circle cx="408" cy="382" r="11" fill="url(#i5G)"/>
  <!-- Offshoots -->
  <g stroke="url(#i5G)" stroke-linecap="round" fill="none" opacity=".2">
    <polyline points="106,142 62,142 62,100" stroke-width="3.5"/>
    <line x1="155" y1="382" x2="155" y2="424" stroke-width="3"/>
    <polyline points="408,142 448,142 448,100" stroke-width="4"/>
    <line x1="408" y1="262" x2="448" y2="262" stroke-width="3"/>
    <line x1="448" y1="262" x2="448" y2="232" stroke-width="3"/>
    <line x1="282" y1="382" x2="282" y2="418" stroke-width="3.5"/>
  </g>
  <g fill="url(#i5G)" opacity=".22">
    <circle cx="62" cy="100" r="4.5"/>
    <circle cx="155" cy="424" r="3.5"/>
    <circle cx="448" cy="100" r="4"/>
    <circle cx="448" cy="232" r="3.5"/>
    <circle cx="282" cy="418" r="4"/>
  </g>
</svg>
