<svg width="512" height="512" viewBox="0 0 40 40" fill="none" xmlns="http://www.w3.org/2000/svg">
  <defs>
    <linearGradient id="hi" x1="20" y1="4" x2="20" y2="36" gradientUnits="userSpaceOnUse">
      <stop stop-color="#FFE680"/>
      <stop offset="0.2" stop-color="#FFD700"/>
      <stop offset="0.5" stop-color="#FFA500"/>
      <stop offset="0.8" stop-color="#FF7700"/>
      <stop offset="1" stop-color="#CC5500"/>
    </linearGradient>
    <linearGradient id="bg" x1="20" y1="0" x2="20" y2="40" gradientUnits="userSpaceOnUse">
      <stop stop-color="#151515"/>
      <stop offset="1" stop-color="#0A0A0A"/>
    </linearGradient>
    <filter id="glow" x="-20%" y="-20%" width="140%" height="140%">
      <feGaussianBlur in="SourceGraphic" stdDeviation="0.8"/>
    </filter>
  </defs>
  <rect x="1" y="1" width="38" height="38" rx="4" fill="url(#bg)"/>
  <rect x="1.5" y="1.5" width="37" height="37" rx="3.5" stroke="#FF7700" stroke-width="0.5" stroke-opacity="0.35" fill="none"/>
  <!-- Glow layers -->
  <path d="M6 9.5 L13 9.5 L13 10.2 L11.2 10.8 L11.2 28.2 L13 28.8 L13 29.5 L6 29.5 L6 28.8 L7.8 28.2 L7.8 10.8 L6 10.2 Z" fill="#FFA500" opacity="0.15" filter="url(#glow)"/>
  <path d="M15.5 9.5 L21.5 9.5 L21.5 10.2 L20 10.8 L20 18.8 L29.5 18.8 L29.5 10.8 L28 10.2 L28 9.5 L34 9.5 L34 10.2 L32.5 10.8 L32.5 28.2 L34 28.8 L34 29.5 L28 29.5 L28 28.8 L29.5 28.2 L29.5 20.5 L20 20.5 L20 28.2 L21.5 28.8 L21.5 29.5 L15.5 29.5 L15.5 28.8 L17 28.2 L17 10.8 L15.5 10.2 Z" fill="#FFA500" opacity="0.15" filter="url(#glow)"/>
  <!-- Serif I -->
  <path d="M6 9.5 L13 9.5 L13 10.2 L11.2 10.8 L11.2 28.2 L13 28.8 L13 29.5 L6 29.5 L6 28.8 L7.8 28.2 L7.8 10.8 L6 10.2 Z" fill="url(#hi)"/>
  <!-- Serif H -->
  <path d="M15.5 9.5 L21.5 9.5 L21.5 10.2 L20 10.8 L20 18.8 L29.5 18.8 L29.5 10.8 L28 10.2 L28 9.5 L34 9.5 L34 10.2 L32.5 10.8 L32.5 28.2 L34 28.8 L34 29.5 L28 29.5 L28 28.8 L29.5 28.2 L29.5 20.5 L20 20.5 L20 28.2 L21.5 28.8 L21.5 29.5 L15.5 29.5 L15.5 28.8 L17 28.2 L17 10.8 L15.5 10.2 Z" fill="url(#hi)"/>
  <!-- Underline -->
  <rect x="5" y="32" width="30" height="0.7" rx="0.35" fill="url(#hi)" opacity="0.6"/>
</svg>
