<svg xmlns="http://www.w3.org/2000/svg" viewBox="0 0 128 128" width="128" height="128">
  <rect width="128" height="128" rx="20" fill="#FFFC00"/>
  <path d="M64 28c-8 0-14.5 3-18.5 8.5S40 48 40 56c0 2 .3 4 .8 6-2.5 1-5.2 1.8-6.8 2.2-2 .5-3 1.5-3 3s1.5 3 4 2.8c2-.2 4.5-.8 6.5-1.2-.5 3-2 6-4.5 8.5-3.5 3.5-8 5.5-13 6.5-2 .4-3 2-3 3.5 0 2 1.5 3.5 3.5 3.5.5 0 1-.1 1.5-.2 4-1.2 8-3 11.5-5.5 2.5 3 6.5 5 11 6 1.5.3 3 .5 4.5.8 1.5 2.5 4 5.5 11 5.5s9.5-3 11-5.5c1.5-.3 3-.5 4.5-.8 4.5-1 8.5-3 11-6 3.5 2.5 7.5 4.3 11.5 5.5.5.1 1 .2 1.5.2 2 0 3.5-1.5 3.5-3.5 0-1.5-1-3.1-3-3.5-5-1-9.5-3-13-6.5-2.5-2.5-4-5.5-4.5-8.5 2 .4 4.5 1 6.5 1.2 2.5.2 4-1.3 4-2.8s-1-2.5-3-3c-1.6-.4-4.3-1.2-6.8-2.2.5-2 .8-4 .8-6 0-8-1.5-15.5-5.5-21S72 28 64 28z" fill="#fff"/>
</svg>